<svg width="0" height="0" class="hidden">
  <symbol
    fill="none"
    xmlns="http://www.w3.org/2000/svg"
    viewBox="0 0 132 131"
    id="icon-chip"
  >
    <path
      d="M91.4408 40.2119H40.0214V91.6704H91.4408V40.2119Z"
      fill="#59E0D8"
    />
    <path
      d="M91.438 95.5519H40.0194C37.8765 95.5519 36.1385 93.8129 36.1385 91.6681V40.2104C36.1385 38.0659 37.8762 36.3267 40.0194 36.3267H91.438C93.5809 36.3267 95.3189 38.0657 95.3189 40.2104V91.6681C95.3189 93.8131 93.5814 95.5519 91.438 95.5519ZM43.9002 87.7844H87.5575V44.0942H43.9002V87.7844Z"
      fill="#46FFF4"
    />
    <path
      d="M108.418 104.776H26.9223V27.1027H45.5498C46.2079 27.1027 46.8269 26.9373 47.3697 26.6484C49.0676 26.2339 50.3291 24.7058 50.3291 22.8794V4.82322C50.3291 2.67873 48.5914 0.939453 46.4483 0.939453C44.3054 0.939453 42.5674 2.67847 42.5674 4.82322V19.3354H23.0417C20.8989 19.3354 19.1609 21.0744 19.1609 23.2192V41.8608H4.66C2.51687 41.8605 0.779175 43.5998 0.779175 45.7443C0.779175 47.8888 2.51687 49.6281 4.66 49.6281H19.1612V62.0558H12.4262C10.2834 62.0558 8.54542 63.7948 8.54542 65.9396C8.54542 68.0843 10.2831 69.8233 12.4262 69.8233H19.1609V82.2511H4.66C2.51687 82.2506 0.779175 83.9899 0.779175 86.1344C0.779175 88.2789 2.51687 90.0181 4.66 90.0181H19.1612V108.66C19.1612 110.804 20.8989 112.544 23.042 112.544H41.6695V127.056C41.6695 129.2 43.4072 130.939 45.5503 130.939C47.6932 130.939 49.4311 129.2 49.4311 127.056V112.544H61.8494V119.283C61.8494 121.428 63.5871 123.167 65.7303 123.167C67.8731 123.167 69.6111 121.428 69.6111 119.283V112.544H82.0294V127.056C82.0294 129.2 83.7671 130.939 85.9102 130.939C88.0534 130.939 89.7911 129.2 89.7911 127.056V112.544H108.419C110.561 112.544 112.299 110.805 112.299 108.66C112.299 106.515 110.561 104.776 108.418 104.776Z"
      fill="#46FFF4"
    />
    <path
      d="M112.197 82.2506V83.2506H113.197H127.699C127.905 83.2506 128.396 83.4428 128.89 84.0312C129.352 84.5819 129.681 85.3314 129.681 86.1346C129.681 87.7278 128.39 89.0184 126.8 89.0184H108.758C107.167 89.0184 105.877 87.7276 105.877 86.1346C105.877 85.6114 106.018 85.1353 106.279 84.7259L106.436 84.48V84.1885V27.1029V26.1029H105.436H66.6288C65.0393 26.1029 63.7489 24.8131 63.7479 23.221C63.748 23.2196 63.7482 23.2133 63.7492 23.1983L63.7505 23.1794L63.7521 23.1551C63.7532 23.1374 63.7545 23.1147 63.7555 23.0896L63.7572 23.049L63.7555 23.0085C63.7545 22.9834 63.7532 22.9608 63.752 22.9432L63.7504 22.9189L63.7492 22.9002C63.7482 22.885 63.748 22.8787 63.7479 22.8774V12.5956C63.7479 11.0024 65.0386 9.71185 66.6288 9.71185C68.2188 9.71185 69.5096 11.0026 69.5096 12.5956V19.3354V20.3354H70.5096H82.9279H83.9279V19.3354V4.82322C83.9279 3.23008 85.2183 1.93945 86.8082 1.93945C88.3983 1.93945 89.689 3.23025 89.689 4.82322V19.3354V20.3354H90.689H109.317C110.907 20.3354 112.197 21.6262 112.197 23.2192V41.8605V42.8605H113.197H127.699C129.289 42.8605 130.579 44.1513 130.579 45.7443C130.579 47.3374 129.288 48.6281 127.699 48.6281H113.197H112.197V49.6281V62.0553V63.0553H113.197H119.932C121.522 63.0553 122.813 64.3459 122.813 65.9391C122.813 67.5322 121.522 68.8228 119.932 68.8228H113.197H112.197V69.8228V82.2506Z"
      fill="white"
      fill-opacity="0.7"
      stroke="white"
      stroke-width="2"
    />
    <rect
      x="57.5604"
      y="34.2144"
      width="42.2411"
      height="42.2747"
      rx="1"
      fill="white"
      fill-opacity="0.6"
      stroke="white"
      stroke-width="2"
    />
  </symbol>
  <symbol
    fill="none"
    xmlns="http://www.w3.org/2000/svg"
    viewBox="0 0 136 131"
    id="icon-shield"
  >
    <path
      d="M129.819 20.5856L129.824 20.5848C132.401 20.1939 134.619 22.1472 134.554 24.53C133.195 70.7748 116.399 97.108 100.046 111.886C91.8568 119.286 83.7547 123.81 77.707 126.482C74.6834 127.818 72.1751 128.69 70.4288 129.227C69.5557 129.496 68.8734 129.68 68.4128 129.797C68.2059 129.85 68.0438 129.888 67.9292 129.915C67.8146 129.888 67.6525 129.85 67.4456 129.797C66.985 129.68 66.3027 129.495 65.4296 129.226C63.6833 128.689 61.1749 127.816 58.1513 126.479C52.1035 123.804 44.0013 119.278 35.812 111.876C19.459 97.0946 2.66291 70.761 1.304 24.5289C1.24 22.1466 3.45777 20.1939 6.03355 20.5848L6.03883 20.5856C17.904 22.3216 45.1096 23.5721 64.9196 3.20862L64.9236 3.20437C66.5451 1.51781 69.3405 1.51781 70.962 3.20438L70.9656 3.2081C90.7482 23.5723 117.954 22.3216 129.819 20.5856Z"
      fill="white"
      fill-opacity="0.6"
      stroke="white"
      stroke-width="2"
    />
    <ellipse
      cx="66.6218"
      cy="118.644"
      rx="4.26841"
      ry="4.0838"
      fill="#522C97"
    />
    <ellipse cx="93.6023" cy="101.81" rx="4.26841" ry="4.0838" fill="#522C97" />
    <ellipse
      rx="4.26841"
      ry="4.0838"
      transform="matrix(-1 0 0 1 41.2623 101.81)"
      fill="#522C97"
    />
    <ellipse
      cx="109.745"
      cy="76.9061"
      rx="4.26841"
      ry="4.0838"
      fill="#522C97"
    />
    <ellipse
      rx="4.26841"
      ry="4.0838"
      transform="matrix(-1 0 0 1 25.1197 76.9061)"
      fill="#522C97"
    />
    <ellipse
      cx="118.282"
      cy="43.2391"
      rx="4.26841"
      ry="4.0838"
      fill="#522C97"
    />
    <ellipse
      rx="4.26841"
      ry="4.0838"
      transform="matrix(-1 0 0 1 16.5826 43.2391)"
      fill="#522C97"
    />
    <path
      d="M82.8822 62.0116C82.5968 61.1046 82.2504 60.3153 81.8437 59.6449C81.4372 58.9739 80.8549 58.3194 80.0958 57.6792C79.3377 57.0393 78.6556 56.524 78.0509 56.1322C77.4465 55.7402 76.6162 55.3018 75.5606 54.8166C74.5059 54.3315 73.6702 53.9705 73.055 53.7331C72.4391 53.4961 71.548 53.1711 70.3826 52.7584C69.3492 52.3872 68.5798 52.1034 68.0736 51.9076C67.568 51.7115 66.903 51.4331 66.0784 51.0718C65.2542 50.7111 64.6385 50.3911 64.2316 50.1127C63.8249 49.8343 63.3907 49.4939 62.9289 49.0917C62.467 48.6894 62.1427 48.2612 61.9557 47.8073C61.7692 47.3534 61.6756 46.8581 61.6756 46.3216C61.6756 44.9189 62.335 43.7735 63.6542 42.8865C64.9736 41.9996 66.6779 41.5559 68.7669 41.5559C69.6899 41.5559 70.6309 41.6744 71.5867 41.9119C72.5426 42.1494 73.3617 42.417 74.0434 42.7164C74.7257 43.0158 75.3686 43.3459 75.9734 43.7068C76.5782 44.068 77.0068 44.3412 77.2599 44.5268C77.5128 44.7126 77.673 44.8363 77.7383 44.8983C78.0245 45.1046 78.3206 45.1767 78.6285 45.115C78.9582 45.0944 79.2113 44.9291 79.3876 44.62L82.0596 40.1014C82.3233 39.689 82.2688 39.2969 81.8947 38.9253C81.7626 38.8015 81.5983 38.6572 81.399 38.492C81.2017 38.3268 80.7728 38.0277 80.1126 37.5942C79.4531 37.1611 78.755 36.7742 78.0189 36.4337C77.282 36.0936 76.3252 35.7478 75.1487 35.3972C73.973 35.0461 72.7578 34.809 71.5042 34.6853V29.2381C71.5042 28.9495 71.4054 28.7121 71.2081 28.5263C71.0103 28.3409 70.7573 28.2478 70.449 28.2478H65.9961C65.7103 28.2478 65.463 28.3457 65.2541 28.5418C65.0452 28.7379 64.9408 28.9699 64.9408 29.2381V34.8089C61.4885 35.4277 58.6851 36.8101 56.5302 38.9559C54.3757 41.1017 53.298 43.5979 53.298 46.4454C53.298 47.2913 53.3918 48.0959 53.5787 48.8589C53.7654 49.6226 53.9964 50.3087 54.2713 50.9172C54.5461 51.5262 54.9365 52.1244 55.4422 52.7125C55.9478 53.3005 56.4262 53.8061 56.8768 54.2288C57.3277 54.6515 57.9159 55.0901 58.6413 55.5438C59.3671 55.998 59.9883 56.3645 60.5051 56.6429C61.0221 56.9204 61.7091 57.2413 62.5664 57.6015C63.4239 57.9628 64.1003 58.2358 64.595 58.422C65.0898 58.6074 65.7658 58.8656 66.6237 59.1951C67.8109 59.6283 68.6906 59.9637 69.2622 60.2011C69.8343 60.4385 70.5596 60.7686 71.4397 61.1916C72.3189 61.6141 72.9618 62.0011 73.3689 62.352C73.7757 62.7029 74.1438 63.1362 74.4739 63.6518C74.8039 64.1675 74.9692 64.7142 74.9692 65.2922C74.9692 66.9222 74.2931 68.1805 72.9404 69.067C71.5884 69.9545 70.0212 70.3981 68.2404 70.3981C67.4276 70.3981 66.6134 70.316 65.8002 70.151C62.9417 69.6139 60.2703 68.3244 57.7856 66.2819L57.7197 66.22C57.5217 65.9937 57.2577 65.9007 56.9282 65.9422C56.5763 65.9834 56.3234 66.1073 56.1696 66.314L52.7723 70.4917C52.4424 70.9043 52.4647 71.3272 52.8384 71.7604C52.9485 71.8843 53.1408 72.0705 53.4156 72.3176C53.691 72.5657 54.2023 72.952 54.9495 73.4791C55.6969 74.0055 56.5105 74.5 57.3902 74.9648C58.2698 75.4289 59.3855 75.8878 60.738 76.3419C62.0905 76.7952 63.4919 77.1148 64.9432 77.3004V82.7164C64.9432 82.985 65.0478 83.2169 65.2565 83.4131C65.4655 83.6094 65.7127 83.707 65.9985 83.707H70.4514C70.7597 83.707 71.0127 83.6143 71.2104 83.4288C71.408 83.2433 71.5065 83.0059 71.5065 82.7165V77.3005C75.0032 76.7642 77.8451 75.356 80.0326 73.076C82.2204 70.796 83.3146 68.0777 83.3146 64.9212C83.3135 63.8898 83.1708 62.92 82.8822 62.0116Z"
      fill="#FF7777"
    />
  </symbol>
  <symbol
    fill="none"
    xmlns="http://www.w3.org/2000/svg"
    viewBox="0 0 112 132"
    id="icon-user"
  >
    <path
      d="M68.8029 44.9903C81.0342 44.9903 90.9496 35.0748 90.9496 22.8435C90.9496 10.6122 81.0342 0.696777 68.8029 0.696777C56.5716 0.696777 46.6561 10.6122 46.6561 22.8435C46.6561 35.0748 56.5716 44.9903 68.8029 44.9903Z"
      fill="#FF42B3"
    />
    <path
      d="M68.803 56.0637C46.6337 56.0637 28.662 74.0354 28.662 96.2047H108.944C108.944 74.0354 90.9722 56.0637 68.803 56.0637Z"
      fill="#FF42B3"
    />
    <path
      d="M62.5297 22.8435C62.5297 34.7987 52.8381 44.4903 40.8829 44.4903C28.9278 44.4903 19.2362 34.7987 19.2362 22.8435C19.2362 10.8884 28.9278 1.19678 40.8829 1.19678C52.8381 1.19678 62.5297 10.8884 62.5297 22.8435Z"
      fill="white"
      fill-opacity="0.6"
      stroke="white"
    />
    <path
      d="M80.5209 95.7047H1.24515C1.51292 74.042 19.1568 56.5637 40.883 56.5637C62.6092 56.5637 80.2531 74.042 80.5209 95.7047Z"
      fill="white"
      fill-opacity="0.6"
      stroke="white"
    />
    <rect
      x="1.74207"
      y="108.231"
      width="108.31"
      height="21.951"
      rx="10.9755"
      fill="white"
      fill-opacity="0.4"
      stroke="white"
      stroke-width="2"
    />
    <path
      d="M95.4493 113.404C98.6542 113.404 101.252 116.002 101.252 119.207C101.252 122.412 98.6542 125.01 95.4493 125.01C92.2443 125.01 89.6462 122.412 89.6462 119.207C89.6462 116.002 92.2443 113.404 95.4493 113.404Z"
      fill="white"
      stroke="white"
      stroke-width="0.5"
      stroke-linecap="round"
    />
  </symbol>
</svg>
