<svg width="0" height="0" class="hidden">
  <symbol fill="none" xmlns="http://www.w3.org/2000/svg" viewBox="0 0 132 131" id="icon-chip">
    <path d="M91.4468 39.8981H40.0273V91.3565H91.4468V39.8981Z" fill="#59E0D8"></path>
    <path d="M91.444 95.238H40.0254C37.8825 95.238 36.1445 93.499 36.1445 91.3543V39.8966C36.1445 37.7521 37.8822 36.0128 40.0254 36.0128H91.444C93.5869 36.0128 95.3248 37.7518 95.3248 39.8966V91.3543C95.3248 93.4993 93.5874 95.238 91.444 95.238ZM43.9062 87.4705H87.5635V43.7804H43.9062V87.4705Z" fill="#46FFF4"></path>
    <path d="M108.424 104.462H26.9283V26.7888H45.5558C46.2139 26.7888 46.8329 26.6234 47.3757 26.3345C49.0736 25.9201 50.3351 24.392 50.3351 22.5655V4.50938C50.3351 2.36488 48.5974 0.62561 46.4543 0.62561C44.3114 0.62561 42.5734 2.36463 42.5734 4.50938V19.0215H23.0477C20.9048 19.0215 19.1669 20.7606 19.1669 22.9053V41.5469H4.66598C2.52285 41.5467 0.785156 43.286 0.785156 45.4305C0.785156 47.5749 2.52285 49.3142 4.66598 49.3142H19.1671V61.742H12.4322C10.2894 61.742 8.5514 63.481 8.5514 65.6257C8.5514 67.7705 10.2891 69.5095 12.4322 69.5095H19.1669V81.9373H4.66598C2.52285 81.9367 0.785156 83.676 0.785156 85.8205C0.785156 87.965 2.52285 89.7043 4.66598 89.7043H19.1671V108.346C19.1671 110.49 20.9048 112.23 23.048 112.23H41.6755V126.742C41.6755 128.886 43.4132 130.626 45.5563 130.626C47.6992 130.626 49.4371 128.887 49.4371 126.742V112.23H61.8554V118.969C61.8554 121.114 63.5931 122.853 65.7363 122.853C67.8791 122.853 69.6171 121.114 69.6171 118.969V112.23H82.0354V126.742C82.0354 128.886 83.7731 130.626 85.9162 130.626C88.0593 130.626 89.797 128.887 89.797 126.742V112.23H108.425C110.567 112.23 112.305 110.491 112.305 108.346C112.305 106.201 110.567 104.462 108.424 104.462Z" fill="#46FFF4"></path>
    <path d="M112.203 81.9367V82.9367H113.203H127.704C127.911 82.9367 128.402 83.1289 128.896 83.7174C129.358 84.2681 129.687 85.0176 129.687 85.8208C129.687 87.4139 128.396 88.7045 126.806 88.7045H108.764C107.173 88.7045 105.883 87.4137 105.883 85.8208C105.883 85.2976 106.024 84.8214 106.285 84.412L106.442 84.1662V83.8747V26.7891V25.7891H105.442H66.6347C65.0453 25.7891 63.7549 24.4993 63.7539 22.9071C63.754 22.9058 63.7542 22.8994 63.7552 22.8844L63.7564 22.8656L63.758 22.8412C63.7592 22.8235 63.7605 22.8009 63.7615 22.7758L63.7632 22.7352L63.7615 22.6946C63.7605 22.6696 63.7591 22.647 63.758 22.6294L63.7564 22.6051L63.7552 22.5864C63.7542 22.5711 63.754 22.5648 63.7539 22.5636V12.2818C63.7539 10.6886 65.0446 9.398 66.6347 9.398C68.2248 9.398 69.5156 10.6888 69.5156 12.2818V19.0215V20.0215H70.5156H82.9339H83.9339V19.0215V4.50938C83.9339 2.91624 85.2243 1.62561 86.8142 1.62561C88.4043 1.62561 89.695 2.91641 89.695 4.50938V19.0215V20.0215H90.695H109.323C110.913 20.0215 112.203 21.3123 112.203 22.9053V41.5467V42.5467H113.203H127.704C129.295 42.5467 130.585 43.8375 130.585 45.4305C130.585 47.0236 129.294 48.3142 127.704 48.3142H113.203H112.203V49.3142V61.7415V62.7415H113.203H119.938C121.528 62.7415 122.819 64.032 122.819 65.6252C122.819 67.2184 121.528 68.509 119.938 68.509H113.203H112.203V69.509V81.9367Z" fill="white" fill-opacity="0.7" stroke="white" stroke-width="2"></path>
    <rect x="57.5664" y="33.9006" width="42.2411" height="42.2747" rx="1" fill="white" fill-opacity="0.6" stroke="white" stroke-width="2"></rect>
  </symbol>
  <symbol fill="none" xmlns="http://www.w3.org/2000/svg" viewBox="0 0 76 101" id="icon-cloud">
    <path d="M60.824 20.0692C59.4828 8.84586 49.8279 0.140137 38.1157 0.140137C26.4034 0.140137 16.7486 8.84586 15.4075 20.0692C7.27718 20.0692 0.685547 26.5855 0.685547 34.6239C0.685547 42.6624 7.27632 49.1787 15.4066 49.1787H60.8249C68.9552 49.1787 75.546 42.6624 75.546 34.6239C75.546 26.5855 68.9543 20.0692 60.824 20.0692Z" fill="url(#paint0_linear_605_406)"></path>
    <path fill-rule="evenodd" clip-rule="evenodd" d="M37.8574 92.4479C37.8574 92.4584 37.8577 92.4689 37.8584 92.4793C36.112 92.7006 34.7279 94.0676 34.5013 95.794H14.5391C14.2629 95.794 14.0391 96.0179 14.0391 96.294C14.0391 96.5702 14.2629 96.794 14.5391 96.794H34.5013C34.7491 98.682 36.3812 100.14 38.3576 100.14C40.334 100.14 41.9661 98.682 42.2139 96.794H61.6914C61.9675 96.794 62.1914 96.5702 62.1914 96.294C62.1914 96.0179 61.9675 95.794 61.6914 95.794H42.2139C41.9873 94.0675 40.603 92.7004 38.8565 92.4792C38.8569 92.4719 38.8572 92.4646 38.8573 92.4572C38.8574 92.4541 38.8574 92.451 38.8574 92.4479L38.8574 53.9863C38.8574 53.7101 38.6336 53.4863 38.3574 53.4863C38.0813 53.4863 37.8574 53.7101 37.8574 53.9863L37.8574 92.4479ZM38.3576 99.1402C39.9635 99.1402 41.2465 97.8555 41.2465 96.294C41.2465 94.7325 39.9635 93.4479 38.3576 93.4479C36.7517 93.4479 35.4688 94.7325 35.4688 96.294C35.4688 97.8555 36.7517 99.1402 38.3576 99.1402Z" fill="url(#paint1_linear_605_406)"></path>
    <rect x="13.0801" y="59.7556" width="48.6107" height="8.65386" rx="4.32693" fill="url(#paint2_linear_605_406)"></rect>
    <rect x="13.0801" y="70.3325" width="48.6107" height="8.65386" rx="4.32693" fill="url(#paint3_linear_605_406)"></rect>
    <rect x="13.0801" y="80.9095" width="48.6107" height="8.65386" rx="4.32693" fill="url(#paint4_linear_605_406)"></rect>
    <ellipse cx="17.9405" cy="64.5633" rx="1.94443" ry="1.92308" fill="white"></ellipse>
    <ellipse cx="18.9132" cy="75.1402" rx="1.94443" ry="1.92308" fill="white"></ellipse>
    <ellipse cx="18.9132" cy="85.7172" rx="1.94443" ry="1.92308" fill="white"></ellipse>
    <ellipse cx="23.7745" cy="64.5633" rx="1.94443" ry="1.92308" fill="white"></ellipse>
    <ellipse cx="23.7745" cy="75.1402" rx="1.94443" ry="1.92308" fill="white"></ellipse>
    <ellipse cx="23.7745" cy="85.7172" rx="1.94443" ry="1.92308" fill="white"></ellipse>
    <ellipse cx="28.6339" cy="64.5633" rx="1.94443" ry="1.92308" fill="white"></ellipse>
    <ellipse cx="28.6339" cy="75.1402" rx="1.94443" ry="1.92308" fill="white"></ellipse>
    <ellipse cx="28.6339" cy="85.7172" rx="1.94443" ry="1.92308" fill="white"></ellipse>
    <defs>
      <linearGradient id="paint0_linear_605_406" x1="27.7746" y1="-6.39396" x2="83.9505" y2="62.0696" gradientUnits="userSpaceOnUse">
        <stop stop-color="#1DE5E2"></stop>
        <stop offset="1" stop-color="#B588F7"></stop>
      </linearGradient>
      <linearGradient id="paint1_linear_605_406" x1="31.4635" y1="47.2699" x2="84.9513" y2="91.3436" gradientUnits="userSpaceOnUse">
        <stop stop-color="#1DE5E2"></stop>
        <stop offset="1" stop-color="#B588F7"></stop>
      </linearGradient>
      <linearGradient id="paint2_linear_605_406" x1="30.6704" y1="58.6025" x2="34.9648" y2="77.8609" gradientUnits="userSpaceOnUse">
        <stop stop-color="#1DE5E2"></stop>
        <stop offset="1" stop-color="#B588F7"></stop>
      </linearGradient>
      <linearGradient id="paint3_linear_605_406" x1="30.6704" y1="69.1794" x2="34.9648" y2="88.4378" gradientUnits="userSpaceOnUse">
        <stop stop-color="#1DE5E2"></stop>
        <stop offset="1" stop-color="#B588F7"></stop>
      </linearGradient>
      <linearGradient id="paint4_linear_605_406" x1="30.6704" y1="79.7565" x2="34.9648" y2="99.0148" gradientUnits="userSpaceOnUse">
        <stop stop-color="#1DE5E2"></stop>
        <stop offset="1" stop-color="#B588F7"></stop>
      </linearGradient>
    </defs>
  </symbol>
  <symbol fill="none" xmlns="http://www.w3.org/2000/svg" viewBox="0 0 144 101" id="icon-computer">
    <path d="M52.7868 100.14H122.102C122.987 100.14 123.705 99.4223 123.705 98.5368C123.705 97.6418 122.972 96.92 122.077 96.9337L99.8374 97.2748C99.6547 97.2776 99.5051 97.1302 99.5051 96.9474C99.5051 96.9274 99.5062 96.9073 99.5132 96.8885C99.5655 96.7478 99.8322 96.4753 100.58 96.3132C101.382 96.1392 101.628 95.3385 101.65 94.9599V86.5259C101.65 85.9828 102.09 85.5425 102.633 85.5425H137.08C140.394 85.5425 143.08 82.8562 143.08 79.5425V6.14014C143.08 2.82643 140.394 0.140137 137.08 0.140137H37.4219C34.1082 0.140137 31.4219 2.82643 31.4219 6.14014V79.5425C31.4219 82.8562 34.1082 85.5425 37.4219 85.5425H70.4938C70.6831 85.5425 70.2287 85.6139 70.2287 93.886C70.2287 95.8029 71.1834 96.2227 71.9472 96.2002C72.2232 96.192 72.4949 96.3893 72.4949 96.6654C72.4949 96.8911 72.312 97.074 72.0863 97.074H52.7868C51.9401 97.074 51.2537 97.7604 51.2537 98.6071C51.2537 99.4538 51.9401 100.14 52.7868 100.14Z" fill="url(#paint0_linear_605_440)"></path>
    <path d="M55.4727 14.3841H122.252" stroke="white" stroke-width="2" stroke-linecap="round"></path>
    <path d="M46.0312 14.3841H47.1456" stroke="white" stroke-width="2" stroke-linecap="round"></path>
    <path d="M33.365 26.7482L31.3592 25.5841C31.4133 25.0798 31.4418 24.5679 31.4418 24.0495C31.4418 23.5311 31.4133 23.019 31.3592 22.5147L33.365 21.3506C33.7935 21.1019 34.1001 20.7001 34.2283 20.2193C34.3563 19.7386 34.2905 19.2365 34.043 18.8056L30.1845 12.0869C29.8543 11.5119 29.2386 11.1549 28.5775 11.1549C28.254 11.1549 27.9344 11.2414 27.6528 11.4048L25.6413 12.5723C24.8237 11.9695 23.94 11.4529 23.0028 11.0356V8.70618C23.0028 7.67883 22.1714 6.84302 21.1495 6.84302H13.432C12.41 6.84302 11.5786 7.67883 11.5786 8.70618V11.0356C10.6414 11.4529 9.75751 11.9696 8.94003 12.5724L6.92856 11.405C6.64704 11.2415 6.32729 11.155 6.0038 11.155C5.34273 11.155 4.72704 11.5121 4.39685 12.087L0.538202 18.8056C0.290682 19.2364 0.224904 19.7386 0.352943 20.2193C0.481217 20.7001 0.787714 21.1018 1.21627 21.3506L3.22199 22.5147C3.16793 23.019 3.13944 23.531 3.13944 24.0495C3.13944 24.568 3.16793 25.0799 3.22199 25.5841L1.21627 26.7482C0.787714 26.9969 0.481217 27.3986 0.352943 27.8795C0.224904 28.3602 0.290682 28.8624 0.538202 29.2932L4.39674 36.0119C4.72692 36.5869 5.34261 36.9439 6.00368 36.9439C6.32718 36.9439 6.64681 36.8575 6.92845 36.694L8.93991 35.5265C9.75751 36.1293 10.6412 36.6459 11.5784 37.0632V39.3928C11.5784 39.8904 11.7712 40.3581 12.1214 40.7101C12.4714 41.0619 12.9369 41.2558 13.4318 41.2558H21.1494C22.1712 41.2558 23.0028 40.4201 23.0028 39.3928V37.0632C23.9399 36.6458 24.8237 36.1293 25.6412 35.5265L27.6528 36.6939C27.9343 36.8574 28.254 36.9438 28.5775 36.9438C29.2386 36.9438 29.8543 36.5868 30.1845 36.0118L34.043 29.2931C34.2905 28.8623 34.3563 28.3601 34.2283 27.8794C34.1001 27.3986 33.7936 26.9969 33.365 26.7482ZM17.2907 30.6135C13.6845 30.6135 10.7611 27.6745 10.7611 24.0495C10.7611 20.4244 13.6846 17.4854 17.2907 17.4854C20.8968 17.4854 23.8204 20.4244 23.8204 24.0495C23.8204 27.6745 20.8968 30.6135 17.2907 30.6135Z" fill="url(#paint1_linear_605_440)"></path>
    <defs>
      <linearGradient id="paint0_linear_605_440" x1="71.8268" y1="-13.1843" x2="187.863" y2="90.2536" gradientUnits="userSpaceOnUse">
        <stop stop-color="#1DE5E2"></stop>
        <stop offset="1" stop-color="#B588F7"></stop>
      </linearGradient>
      <linearGradient id="paint1_linear_605_440" x1="12.5935" y1="2.25772" x2="51.684" y2="33.0942" gradientUnits="userSpaceOnUse">
        <stop stop-color="#1DE5E2"></stop>
        <stop offset="1" stop-color="#B588F7"></stop>
      </linearGradient>
    </defs>
  </symbol>
  <symbol fill="none" xmlns="http://www.w3.org/2000/svg" viewBox="0 0 100 101" id="icon-discount">
    <path d="M50.0349 0.140137C56.2607 0.140137 61.3036 6.9943 66.8238 9.34847C72.3441 11.7026 80.9772 10.411 85.1692 14.8693C89.3613 19.3276 88.3029 27.5151 90.6687 33.286C93.0345 39.0568 99.8414 43.8901 99.8414 50.1401C99.8414 56.3901 93.0137 61.4526 90.6687 66.9943C88.3236 72.536 89.6103 81.2026 85.1692 85.411C80.7281 89.6193 72.5723 88.5985 66.8238 90.9318C61.0754 93.2651 56.2607 100.14 50.0349 100.14C43.8091 100.14 38.7662 93.286 33.246 90.9318C27.7258 88.5776 19.0927 89.8693 14.9007 85.411C10.7086 80.9526 11.7255 72.7651 9.40119 66.9943C7.07689 61.2235 0.228516 56.3901 0.228516 50.1401C0.228516 43.8901 7.05614 38.8276 9.40119 33.286C11.7462 27.7443 10.4596 19.0776 14.9007 14.8693C19.3417 10.661 27.4975 11.6818 33.246 9.34847C38.9945 7.01513 43.8091 0.140137 50.0349 0.140137Z" fill="url(#paint0_linear_605_425)"></path>
    <path d="M44.3226 50.389C44.3226 53.8999 43.7473 56.4987 42.5968 58.1854C41.4554 59.8721 39.693 60.7155 37.3097 60.7155C34.9995 60.7155 33.2554 59.8446 32.0774 58.1029C30.9086 56.3612 30.3242 53.7899 30.3242 50.389C30.3242 46.8414 30.8949 44.2289 32.0364 42.5514C33.1778 40.8647 34.9356 40.0213 37.3097 40.0213C39.62 40.0213 41.364 40.9013 42.542 42.6614C43.7291 44.4214 44.3226 46.9973 44.3226 50.389ZM34.5292 50.389C34.5292 52.8549 34.7392 54.6241 35.1593 55.6966C35.5885 56.76 36.3053 57.2917 37.3097 57.2917C38.2959 57.2917 39.0082 56.7508 39.4465 55.6691C39.8848 54.5874 40.1039 52.8274 40.1039 50.389C40.1039 47.9231 39.8802 46.1539 39.4328 45.0814C38.9945 43.9997 38.2868 43.4589 37.3097 43.4589C36.3144 43.4589 35.6022 43.9997 35.173 45.0814C34.7438 46.1539 34.5292 47.9231 34.5292 50.389Z" fill="white"></path>
    <path d="M49.6508 46.3602C49.6508 47.5244 49.7512 48.3952 49.9521 48.9727C50.1621 49.5411 50.4954 49.8253 50.952 49.8253C51.8286 49.8253 52.2669 48.6702 52.2669 46.3602C52.2669 44.0685 51.8286 42.9226 50.952 42.9226C50.4954 42.9226 50.1621 43.2068 49.9521 43.7751C49.7512 44.3343 49.6508 45.196 49.6508 46.3602ZM55.7186 46.3327C55.7186 48.4411 55.3122 50.0269 54.4995 51.0903C53.6868 52.1445 52.4952 52.6716 50.9246 52.6716C49.4179 52.6716 48.2537 52.1307 47.4318 51.049C46.61 49.9582 46.1991 48.3861 46.1991 46.3327C46.1991 42.1434 47.7743 40.0488 50.9246 40.0488C52.4678 40.0488 53.6503 40.5942 54.4721 41.6851C55.3031 42.7668 55.7186 44.316 55.7186 46.3327ZM65.1421 40.3376L54.0338 60.4405H50.7465L61.8549 40.3376H65.1421ZM63.6766 54.3904C63.6766 55.5546 63.777 56.4254 63.9779 57.0029C64.1879 57.5713 64.5212 57.8554 64.9778 57.8554C65.8544 57.8554 66.2927 56.7004 66.2927 54.3904C66.2927 52.0986 65.8544 50.9528 64.9778 50.9528C64.5212 50.9528 64.1879 51.237 63.9779 51.8053C63.777 52.3645 63.6766 53.2262 63.6766 54.3904ZM69.7444 54.3629C69.7444 56.4621 69.338 58.0434 68.5253 59.1067C67.7126 60.1609 66.521 60.688 64.9504 60.688C63.4437 60.688 62.2795 60.1472 61.4576 59.0655C60.6358 57.9746 60.2249 56.4071 60.2249 54.3629C60.2249 50.1736 61.8001 48.079 64.9504 48.079C66.4936 48.079 67.6761 48.6244 68.4979 49.7153C69.3289 50.797 69.7444 52.3462 69.7444 54.3629Z" fill="white"></path>
    <defs>
      <linearGradient id="paint0_linear_605_425" x1="36.2745" y1="-13.1843" x2="150.078" y2="77.3197" gradientUnits="userSpaceOnUse">
        <stop stop-color="#1DE5E2"></stop>
        <stop offset="1" stop-color="#B588F7"></stop>
      </linearGradient>
    </defs>
  </symbol>
  <symbol fill="none" xmlns="http://www.w3.org/2000/svg" viewBox="0 0 136 131" id="icon-shield">
    <path d="M129.825 20.2718L129.83 20.271C132.407 19.88 134.625 21.8333 134.56 24.2162C133.201 70.4609 116.405 96.7941 100.052 111.572C91.8628 118.972 83.7607 123.496 77.7129 126.168C74.6894 127.504 72.1811 128.377 70.4347 128.914C69.5617 129.182 68.8794 129.367 68.4187 129.483C68.2119 129.536 68.0498 129.575 67.9352 129.601C67.8206 129.575 67.6585 129.536 67.4516 129.483C66.991 129.366 66.3087 129.181 65.4356 128.913C63.6893 128.375 61.1809 127.502 58.1573 126.165C52.1095 123.491 44.0073 118.964 35.818 111.562C19.4649 96.7808 2.6689 70.4472 1.30998 24.2151C1.24598 21.8327 3.46375 19.8801 6.03953 20.271L6.04481 20.2718C17.91 22.0078 45.1156 23.2583 64.9255 2.89478L64.9296 2.89053C66.5511 1.20397 69.3465 1.20397 70.968 2.89054L70.9716 2.89426C90.7541 23.2584 117.96 22.0077 129.825 20.2718Z" fill="white" fill-opacity="0.6" stroke="white" stroke-width="2"></path>
    <ellipse cx="66.6278" cy="118.33" rx="4.26841" ry="4.0838" fill="#522C97"></ellipse>
    <ellipse cx="93.6083" cy="101.497" rx="4.26841" ry="4.0838" fill="#522C97"></ellipse>
    <ellipse rx="4.26841" ry="4.0838" transform="matrix(-1 0 0 1 41.2687 101.497)" fill="#522C97"></ellipse>
    <ellipse cx="109.751" cy="76.5922" rx="4.26841" ry="4.0838" fill="#522C97"></ellipse>
    <ellipse rx="4.26841" ry="4.0838" transform="matrix(-1 0 0 1 25.1261 76.5922)" fill="#522C97"></ellipse>
    <ellipse cx="118.288" cy="42.9251" rx="4.26841" ry="4.0838" fill="#522C97"></ellipse>
    <ellipse rx="4.26841" ry="4.0838" transform="matrix(-1 0 0 1 16.589 42.9251)" fill="#522C97"></ellipse>
    <path d="M82.8886 61.6978C82.6032 60.7908 82.2568 60.0014 81.8501 59.3311C81.4436 58.6601 80.8613 58.0056 80.1022 57.3654C79.3441 56.7255 78.662 56.2101 78.0573 55.8184C77.4529 55.4263 76.6226 54.9879 75.567 54.5027C74.5123 54.0177 73.6766 53.6567 73.0614 53.4193C72.4455 53.1822 71.5545 52.8572 70.389 52.4446C69.3556 52.0734 68.5862 51.7896 68.08 51.5937C67.5744 51.3976 66.9095 51.1193 66.0849 50.758C65.2606 50.3972 64.6449 50.0772 64.238 49.7988C63.8313 49.5205 63.3971 49.1801 62.9353 48.7778C62.4734 48.3756 62.1492 47.9474 61.9621 47.4935C61.7756 47.0395 61.682 46.5442 61.682 46.0078C61.682 44.6051 62.3414 43.4596 63.6606 42.5727C64.98 41.6858 66.6843 41.2421 68.7733 41.2421C69.6963 41.2421 70.6373 41.3606 71.5932 41.5981C72.549 41.8356 73.3681 42.1031 74.0498 42.4025C74.7321 42.7019 75.375 43.0321 75.9799 43.393C76.5846 43.7541 77.0132 44.0273 77.2663 44.213C77.5192 44.3988 77.6794 44.5225 77.7447 44.5845C78.0309 44.7908 78.327 44.8629 78.6349 44.8012C78.9646 44.7806 79.2177 44.6153 79.394 44.3061L82.066 39.7876C82.3297 39.3751 82.2752 38.983 81.9011 38.6114C81.769 38.4877 81.6047 38.3434 81.4054 38.1782C81.2081 38.013 80.7792 37.7139 80.119 37.2804C79.4595 36.8472 78.7614 36.4604 78.0253 36.1199C77.2884 35.7797 76.3316 35.4339 75.1551 35.0834C73.9794 34.7323 72.7642 34.4952 71.5106 34.3715V28.9243C71.5106 28.6356 71.4118 28.3982 71.2145 28.2124C71.0167 28.0271 70.7637 27.934 70.4554 27.934H66.0025C65.7167 27.934 65.4694 28.0318 65.2605 28.2279C65.0516 28.424 64.9472 28.656 64.9472 28.9243V34.4951C61.495 35.1138 58.6915 36.4962 56.5367 38.642C54.3821 40.7879 53.3044 43.284 53.3044 46.1316C53.3044 46.9774 53.3982 47.7821 53.5851 48.5451C53.7718 49.3088 54.0028 49.9948 54.2777 50.6034C54.5525 51.2124 54.9429 51.8105 55.4486 52.3987C55.9542 52.9867 56.4326 53.4922 56.8832 53.915C57.3341 54.3376 57.9223 54.7762 58.6477 55.23C59.3735 55.6842 59.9947 56.0507 60.5115 56.3291C61.0285 56.6066 61.7155 56.9274 62.5728 57.2876C63.4303 57.6489 64.1067 57.922 64.6014 58.1081C65.0962 58.2936 65.7723 58.5518 66.6301 58.8812C67.8173 59.3145 68.697 59.6499 69.2686 59.8873C69.8407 60.1247 70.5661 60.4548 71.4461 60.8777C72.3253 61.3003 72.9682 61.6873 73.3753 62.0382C73.7821 62.389 74.1502 62.8223 74.4803 63.338C74.8103 63.8536 74.9756 64.4004 74.9756 64.9784C74.9756 66.6084 74.2995 67.8667 72.9468 68.7532C71.5948 69.6407 70.0276 70.0842 68.2468 70.0842C67.434 70.0842 66.6198 70.0022 65.8066 69.8372C62.9481 69.3001 60.2767 68.0105 57.792 65.9681L57.7261 65.9062C57.5281 65.6798 57.2641 65.5868 56.9346 65.6284C56.5828 65.6695 56.3298 65.7934 56.176 66.0002L52.7787 70.1779C52.4488 70.5905 52.4711 71.0133 52.8448 71.4466C52.9549 71.5705 53.1473 71.7566 53.422 72.0038C53.6974 72.2519 54.2087 72.6381 54.9559 73.1653C55.7033 73.6917 56.5169 74.1862 57.3966 74.651C58.2762 75.1151 59.3919 75.5739 60.7444 76.028C62.0969 76.4813 63.4983 76.801 64.9496 76.9866V82.4026C64.9496 82.6712 65.0542 82.903 65.2629 83.0993C65.4719 83.2956 65.7191 83.3931 66.0049 83.3931H70.4578C70.7661 83.3931 71.0191 83.3004 71.2168 83.115C71.4144 82.9295 71.5129 82.6921 71.5129 82.4027V76.9867C75.0096 76.4503 77.8515 75.0421 80.0391 72.7621C82.2268 70.4822 83.321 67.7638 83.321 64.6073C83.3199 63.5759 83.1772 62.6062 82.8886 61.6978Z" fill="#FF7777"></path>
  </symbol>
  <symbol fill="none" xmlns="http://www.w3.org/2000/svg" viewBox="0 0 109 90" id="icon-up">
    <rect x="90.9434" y="18.1403" width="10.3382" height="57.6923" fill="url(#paint0_linear_605_394)"></rect>
    <rect x="76.4707" y="33.525" width="10.3382" height="42.3077" fill="url(#paint1_linear_605_394)"></rect>
    <rect x="61.998" y="23.9096" width="8.27057" height="51.9231" fill="url(#paint2_linear_605_394)"></rect>
    <rect x="45.457" y="46.9865" width="10.3382" height="28.8461" fill="url(#paint3_linear_605_394)"></rect>
    <rect x="30.9824" y="60.448" width="10.3382" height="15.3846" fill="url(#paint4_linear_605_394)"></rect>
    <path d="M2.03516 63.3325L38.2189 36.4095H56.8277L93.0115 2.75562M93.0115 2.75562V19.1018M93.0115 2.75562L76.4703 4.67869" stroke="url(#paint5_linear_605_394)" stroke-width="4" stroke-linecap="round"></path>
    <path d="M66.1328 69.1081V67.1725C66.1328 56.1269 75.0871 47.1725 86.1328 47.1725H88.0684C99.1141 47.1725 108.068 56.1269 108.068 67.1725V69.1081C108.068 80.1538 99.1141 89.1081 88.0684 89.1081H86.1328C75.0871 89.1081 66.1328 80.1538 66.1328 69.1081Z" fill="url(#paint6_linear_605_394)"></path>
    <path d="M85.4258 58.903V72.5756H94.156" stroke="white" stroke-width="2" stroke-linecap="round"></path>
    <defs>
      <linearGradient id="paint0_linear_605_394" x1="94.6844" y1="10.4532" x2="113.578" y2="13.1562" gradientUnits="userSpaceOnUse">
        <stop stop-color="#1DE5E2"></stop>
        <stop offset="1" stop-color="#B588F7"></stop>
      </linearGradient>
      <linearGradient id="paint1_linear_605_394" x1="80.2117" y1="27.8877" x2="98.7856" y2="31.5112" gradientUnits="userSpaceOnUse">
        <stop stop-color="#1DE5E2"></stop>
        <stop offset="1" stop-color="#B588F7"></stop>
      </linearGradient>
      <linearGradient id="paint2_linear_605_394" x1="64.9908" y1="16.9912" x2="80.17" y2="18.9214" gradientUnits="userSpaceOnUse">
        <stop stop-color="#1DE5E2"></stop>
        <stop offset="1" stop-color="#B588F7"></stop>
      </linearGradient>
      <linearGradient id="paint3_linear_605_394" x1="49.198" y1="43.1429" x2="67.0198" y2="48.2422" gradientUnits="userSpaceOnUse">
        <stop stop-color="#1DE5E2"></stop>
        <stop offset="1" stop-color="#B588F7"></stop>
      </linearGradient>
      <linearGradient id="paint4_linear_605_394" x1="34.7234" y1="58.3981" x2="49.6952" y2="66.4302" gradientUnits="userSpaceOnUse">
        <stop stop-color="#1DE5E2"></stop>
        <stop offset="1" stop-color="#B588F7"></stop>
      </linearGradient>
      <linearGradient id="paint5_linear_605_394" x1="34.9559" y1="-5.31591" x2="104.562" y2="78.1415" gradientUnits="userSpaceOnUse">
        <stop stop-color="#1DE5E2"></stop>
        <stop offset="1" stop-color="#B588F7"></stop>
      </linearGradient>
      <linearGradient id="paint6_linear_605_394" x1="81.3077" y1="41.5849" x2="129.073" y2="79.7188" gradientUnits="userSpaceOnUse">
        <stop stop-color="#1DE5E2"></stop>
        <stop offset="1" stop-color="#B588F7"></stop>
      </linearGradient>
    </defs>
  </symbol>
  <symbol fill="none" xmlns="http://www.w3.org/2000/svg" viewBox="0 0 112 131" id="icon-user">
    <path d="M68.8088 44.6763C81.0402 44.6763 90.9556 34.7609 90.9556 22.5296C90.9556 10.2982 81.0402 0.382812 68.8088 0.382812C56.5775 0.382812 46.6621 10.2982 46.6621 22.5296C46.6621 34.7609 56.5775 44.6763 68.8088 44.6763Z" fill="#FF42B3"></path>
    <path d="M68.8089 55.7497C46.6397 55.7497 28.668 73.7214 28.668 95.8907H108.95C108.95 73.7214 90.9782 55.7497 68.8089 55.7497Z" fill="#FF42B3"></path>
    <path d="M62.5357 22.5294C62.5357 34.4846 52.8441 44.1762 40.8889 44.1762C28.9338 44.1762 19.2422 34.4846 19.2422 22.5294C19.2422 10.5743 28.9338 0.88269 40.8889 0.88269C52.8441 0.88269 62.5357 10.5743 62.5357 22.5294Z" fill="white" fill-opacity="0.6" stroke="white"></path>
    <path d="M80.5269 95.3906H1.25114C1.5189 73.7279 19.1628 56.2496 40.889 56.2496C62.6152 56.2496 80.2591 73.7279 80.5269 95.3906Z" fill="white" fill-opacity="0.6" stroke="white"></path>
    <rect x="1.74805" y="107.917" width="108.31" height="21.951" rx="10.9755" stroke="white" stroke-width="2"></rect>
    <path d="M95.4554 113.09C98.6603 113.09 101.258 115.688 101.258 118.893C101.258 122.098 98.6603 124.696 95.4554 124.696C92.2504 124.696 89.6523 122.098 89.6523 118.893C89.6523 115.688 92.2504 113.09 95.4554 113.09Z" fill="white" stroke="white" stroke-width="0.5" stroke-linecap="round"></path>
  </symbol>
</svg>