<svg width="0" height="0" class="hidden">
  <symbol
    fill="none"
    xmlns="http://www.w3.org/2000/svg"
    viewBox="0 0 132 131"
    id="icon-chip"
  >
    <path
      d="M91.4468 39.8981H40.0273V91.3565H91.4468V39.8981Z"
      fill="#59E0D8"
    />
    <path
      d="M91.444 95.238H40.0254C37.8825 95.238 36.1445 93.499 36.1445 91.3543V39.8966C36.1445 37.7521 37.8822 36.0128 40.0254 36.0128H91.444C93.5869 36.0128 95.3248 37.7518 95.3248 39.8966V91.3543C95.3248 93.4993 93.5874 95.238 91.444 95.238ZM43.9062 87.4705H87.5635V43.7804H43.9062V87.4705Z"
      fill="#46FFF4"
    />
    <path
      d="M108.424 104.462H26.9283V26.7888H45.5558C46.2139 26.7888 46.8329 26.6234 47.3757 26.3345C49.0736 25.9201 50.3351 24.392 50.3351 22.5655V4.50938C50.3351 2.36488 48.5974 0.62561 46.4543 0.62561C44.3114 0.62561 42.5734 2.36463 42.5734 4.50938V19.0215H23.0477C20.9048 19.0215 19.1669 20.7606 19.1669 22.9053V41.5469H4.66598C2.52285 41.5467 0.785156 43.286 0.785156 45.4305C0.785156 47.5749 2.52285 49.3142 4.66598 49.3142H19.1671V61.742H12.4322C10.2894 61.742 8.5514 63.481 8.5514 65.6257C8.5514 67.7705 10.2891 69.5095 12.4322 69.5095H19.1669V81.9373H4.66598C2.52285 81.9367 0.785156 83.676 0.785156 85.8205C0.785156 87.965 2.52285 89.7043 4.66598 89.7043H19.1671V108.346C19.1671 110.49 20.9048 112.23 23.048 112.23H41.6755V126.742C41.6755 128.886 43.4132 130.626 45.5563 130.626C47.6992 130.626 49.4371 128.887 49.4371 126.742V112.23H61.8554V118.969C61.8554 121.114 63.5931 122.853 65.7363 122.853C67.8791 122.853 69.6171 121.114 69.6171 118.969V112.23H82.0354V126.742C82.0354 128.886 83.7731 130.626 85.9162 130.626C88.0593 130.626 89.797 128.887 89.797 126.742V112.23H108.425C110.567 112.23 112.305 110.491 112.305 108.346C112.305 106.201 110.567 104.462 108.424 104.462Z"
      fill="#46FFF4"
    />
    <path
      d="M112.203 81.9367V82.9367H113.203H127.704C127.911 82.9367 128.402 83.1289 128.896 83.7174C129.358 84.2681 129.687 85.0176 129.687 85.8208C129.687 87.4139 128.396 88.7045 126.806 88.7045H108.764C107.173 88.7045 105.883 87.4137 105.883 85.8208C105.883 85.2976 106.024 84.8214 106.285 84.412L106.442 84.1662V83.8747V26.7891V25.7891H105.442H66.6347C65.0453 25.7891 63.7549 24.4993 63.7539 22.9071C63.754 22.9058 63.7542 22.8994 63.7552 22.8844L63.7564 22.8656L63.758 22.8412C63.7592 22.8235 63.7605 22.8009 63.7615 22.7758L63.7632 22.7352L63.7615 22.6946C63.7605 22.6696 63.7591 22.647 63.758 22.6294L63.7564 22.6051L63.7552 22.5864C63.7542 22.5711 63.754 22.5648 63.7539 22.5636V12.2818C63.7539 10.6886 65.0446 9.398 66.6347 9.398C68.2248 9.398 69.5156 10.6888 69.5156 12.2818V19.0215V20.0215H70.5156H82.9339H83.9339V19.0215V4.50938C83.9339 2.91624 85.2243 1.62561 86.8142 1.62561C88.4043 1.62561 89.695 2.91641 89.695 4.50938V19.0215V20.0215H90.695H109.323C110.913 20.0215 112.203 21.3123 112.203 22.9053V41.5467V42.5467H113.203H127.704C129.295 42.5467 130.585 43.8375 130.585 45.4305C130.585 47.0236 129.294 48.3142 127.704 48.3142H113.203H112.203V49.3142V61.7415V62.7415H113.203H119.938C121.528 62.7415 122.819 64.032 122.819 65.6252C122.819 67.2184 121.528 68.509 119.938 68.509H113.203H112.203V69.509V81.9367Z"
      fill="white"
      fill-opacity="0.7"
      stroke="white"
      stroke-width="2"
    />
    <rect
      x="57.5664"
      y="33.9006"
      width="42.2411"
      height="42.2747"
      rx="1"
      fill="white"
      fill-opacity="0.6"
      stroke="white"
      stroke-width="2"
    />
  </symbol>
  <symbol
    fill="none"
    xmlns="http://www.w3.org/2000/svg"
    viewBox="0 0 136 131"
    id="icon-shield"
  >
    <path
      d="M129.825 20.2718L129.83 20.271C132.407 19.88 134.625 21.8333 134.56 24.2162C133.201 70.4609 116.405 96.7941 100.052 111.572C91.8628 118.972 83.7607 123.496 77.7129 126.168C74.6894 127.504 72.1811 128.377 70.4347 128.914C69.5617 129.182 68.8794 129.367 68.4187 129.483C68.2119 129.536 68.0498 129.575 67.9352 129.601C67.8206 129.575 67.6585 129.536 67.4516 129.483C66.991 129.366 66.3087 129.181 65.4356 128.913C63.6893 128.375 61.1809 127.502 58.1573 126.165C52.1095 123.491 44.0073 118.964 35.818 111.562C19.4649 96.7808 2.6689 70.4472 1.30998 24.2151C1.24598 21.8327 3.46375 19.8801 6.03953 20.271L6.04481 20.2718C17.91 22.0078 45.1156 23.2583 64.9255 2.89478L64.9296 2.89053C66.5511 1.20397 69.3465 1.20397 70.968 2.89054L70.9716 2.89426C90.7541 23.2584 117.96 22.0077 129.825 20.2718Z"
      fill="white"
      fill-opacity="0.6"
      stroke="white"
      stroke-width="2"
    />
    <ellipse cx="66.6278" cy="118.33" rx="4.26841" ry="4.0838" fill="#522C97" />
    <ellipse
      cx="93.6083"
      cy="101.497"
      rx="4.26841"
      ry="4.0838"
      fill="#522C97"
    />
    <ellipse
      rx="4.26841"
      ry="4.0838"
      transform="matrix(-1 0 0 1 41.2687 101.497)"
      fill="#522C97"
    />
    <ellipse
      cx="109.751"
      cy="76.5922"
      rx="4.26841"
      ry="4.0838"
      fill="#522C97"
    />
    <ellipse
      rx="4.26841"
      ry="4.0838"
      transform="matrix(-1 0 0 1 25.1261 76.5922)"
      fill="#522C97"
    />
    <ellipse
      cx="118.288"
      cy="42.9251"
      rx="4.26841"
      ry="4.0838"
      fill="#522C97"
    />
    <ellipse
      rx="4.26841"
      ry="4.0838"
      transform="matrix(-1 0 0 1 16.589 42.9251)"
      fill="#522C97"
    />
    <path
      d="M82.8886 61.6978C82.6032 60.7908 82.2568 60.0014 81.8501 59.3311C81.4436 58.6601 80.8613 58.0056 80.1022 57.3654C79.3441 56.7255 78.662 56.2101 78.0573 55.8184C77.4529 55.4263 76.6226 54.9879 75.567 54.5027C74.5123 54.0177 73.6766 53.6567 73.0614 53.4193C72.4455 53.1822 71.5545 52.8572 70.389 52.4446C69.3556 52.0734 68.5862 51.7896 68.08 51.5937C67.5744 51.3976 66.9095 51.1193 66.0849 50.758C65.2606 50.3972 64.6449 50.0772 64.238 49.7988C63.8313 49.5205 63.3971 49.1801 62.9353 48.7778C62.4734 48.3756 62.1492 47.9474 61.9621 47.4935C61.7756 47.0395 61.682 46.5442 61.682 46.0078C61.682 44.6051 62.3414 43.4596 63.6606 42.5727C64.98 41.6858 66.6843 41.2421 68.7733 41.2421C69.6963 41.2421 70.6373 41.3606 71.5932 41.5981C72.549 41.8356 73.3681 42.1031 74.0498 42.4025C74.7321 42.7019 75.375 43.0321 75.9799 43.393C76.5846 43.7541 77.0132 44.0273 77.2663 44.213C77.5192 44.3988 77.6794 44.5225 77.7447 44.5845C78.0309 44.7908 78.327 44.8629 78.6349 44.8012C78.9646 44.7806 79.2177 44.6153 79.394 44.3061L82.066 39.7876C82.3297 39.3751 82.2752 38.983 81.9011 38.6114C81.769 38.4877 81.6047 38.3434 81.4054 38.1782C81.2081 38.013 80.7792 37.7139 80.119 37.2804C79.4595 36.8472 78.7614 36.4604 78.0253 36.1199C77.2884 35.7797 76.3316 35.4339 75.1551 35.0834C73.9794 34.7323 72.7642 34.4952 71.5106 34.3715V28.9243C71.5106 28.6356 71.4118 28.3982 71.2145 28.2124C71.0167 28.0271 70.7637 27.934 70.4554 27.934H66.0025C65.7167 27.934 65.4694 28.0318 65.2605 28.2279C65.0516 28.424 64.9472 28.656 64.9472 28.9243V34.4951C61.495 35.1138 58.6915 36.4962 56.5367 38.642C54.3821 40.7879 53.3044 43.284 53.3044 46.1316C53.3044 46.9774 53.3982 47.7821 53.5851 48.5451C53.7718 49.3088 54.0028 49.9948 54.2777 50.6034C54.5525 51.2124 54.9429 51.8105 55.4486 52.3987C55.9542 52.9867 56.4326 53.4922 56.8832 53.915C57.3341 54.3376 57.9223 54.7762 58.6477 55.23C59.3735 55.6842 59.9947 56.0507 60.5115 56.3291C61.0285 56.6066 61.7155 56.9274 62.5728 57.2876C63.4303 57.6489 64.1067 57.922 64.6014 58.1081C65.0962 58.2936 65.7723 58.5518 66.6301 58.8812C67.8173 59.3145 68.697 59.6499 69.2686 59.8873C69.8407 60.1247 70.5661 60.4548 71.4461 60.8777C72.3253 61.3003 72.9682 61.6873 73.3753 62.0382C73.7821 62.389 74.1502 62.8223 74.4803 63.338C74.8103 63.8536 74.9756 64.4004 74.9756 64.9784C74.9756 66.6084 74.2995 67.8667 72.9468 68.7532C71.5948 69.6407 70.0276 70.0842 68.2468 70.0842C67.434 70.0842 66.6198 70.0022 65.8066 69.8372C62.9481 69.3001 60.2767 68.0105 57.792 65.9681L57.7261 65.9062C57.5281 65.6798 57.2641 65.5868 56.9346 65.6284C56.5828 65.6695 56.3298 65.7934 56.176 66.0002L52.7787 70.1779C52.4488 70.5905 52.4711 71.0133 52.8448 71.4466C52.9549 71.5705 53.1473 71.7566 53.422 72.0038C53.6974 72.2519 54.2087 72.6381 54.9559 73.1653C55.7033 73.6917 56.5169 74.1862 57.3966 74.651C58.2762 75.1151 59.3919 75.5739 60.7444 76.028C62.0969 76.4813 63.4983 76.801 64.9496 76.9866V82.4026C64.9496 82.6712 65.0542 82.903 65.2629 83.0993C65.4719 83.2956 65.7191 83.3931 66.0049 83.3931H70.4578C70.7661 83.3931 71.0191 83.3004 71.2168 83.115C71.4144 82.9295 71.5129 82.6921 71.5129 82.4027V76.9867C75.0096 76.4503 77.8515 75.0421 80.0391 72.7621C82.2268 70.4822 83.321 67.7638 83.321 64.6073C83.3199 63.5759 83.1772 62.6062 82.8886 61.6978Z"
      fill="#FF7777"
    />
  </symbol>
  <symbol
    fill="none"
    xmlns="http://www.w3.org/2000/svg"
    viewBox="0 0 112 131"
    id="icon-user"
  >
    <path
      d="M68.8088 44.6763C81.0402 44.6763 90.9556 34.7609 90.9556 22.5296C90.9556 10.2982 81.0402 0.382812 68.8088 0.382812C56.5775 0.382812 46.6621 10.2982 46.6621 22.5296C46.6621 34.7609 56.5775 44.6763 68.8088 44.6763Z"
      fill="#FF42B3"
    />
    <path
      d="M68.8089 55.7497C46.6397 55.7497 28.668 73.7214 28.668 95.8907H108.95C108.95 73.7214 90.9782 55.7497 68.8089 55.7497Z"
      fill="#FF42B3"
    />
    <path
      d="M62.5357 22.5294C62.5357 34.4846 52.8441 44.1762 40.8889 44.1762C28.9338 44.1762 19.2422 34.4846 19.2422 22.5294C19.2422 10.5743 28.9338 0.88269 40.8889 0.88269C52.8441 0.88269 62.5357 10.5743 62.5357 22.5294Z"
      fill="white"
      fill-opacity="0.6"
      stroke="white"
    />
    <path
      d="M80.5269 95.3906H1.25114C1.5189 73.7279 19.1628 56.2496 40.889 56.2496C62.6152 56.2496 80.2591 73.7279 80.5269 95.3906Z"
      fill="white"
      fill-opacity="0.6"
      stroke="white"
    />
    <rect
      x="1.74805"
      y="107.917"
      width="108.31"
      height="21.951"
      rx="10.9755"
      stroke="white"
      stroke-width="2"
    />
    <path
      d="M95.4554 113.09C98.6603 113.09 101.258 115.688 101.258 118.893C101.258 122.098 98.6603 124.696 95.4554 124.696C92.2504 124.696 89.6523 122.098 89.6523 118.893C89.6523 115.688 92.2504 113.09 95.4554 113.09Z"
      fill="white"
      stroke="white"
      stroke-width="0.5"
      stroke-linecap="round"
    />
  </symbol>
</svg>
